<?xml version="1.0" encoding="iso-8859-1"?>
<!-- Uploaded to: SVG Repo, www.svgrepo.com, Generator: SVG Repo Mixer Tools -->
<svg fill="#000000" height="800px" width="800px" version="1.1" id="Layer_1" xmlns="http://www.w3.org/2000/svg" xmlns:xlink="http://www.w3.org/1999/xlink" 
	 viewBox="0 0 511.999 511.999" xml:space="preserve">
<g>
	<g>
		<path d="M87.605,389.526c-0.152-0.754-0.377-1.497-0.671-2.202c-0.294-0.718-0.659-1.401-1.083-2.037
			c-0.424-0.648-0.918-1.248-1.46-1.79s-1.153-1.036-1.79-1.46c-0.648-0.424-1.331-0.789-2.037-1.083s-1.447-0.518-2.202-0.671
			c-1.519-0.306-3.084-0.306-4.603,0c-0.755,0.153-1.497,0.377-2.202,0.671c-0.708,0.294-1.391,0.659-2.037,1.083
			c-0.636,0.424-1.248,0.919-1.79,1.46s-1.036,1.142-1.46,1.79c-0.424,0.636-0.789,1.319-1.083,2.037
			c-0.294,0.707-0.518,1.448-0.671,2.202c-0.153,0.754-0.236,1.531-0.236,2.296c0,0.766,0.082,1.543,0.236,2.308
			c0.153,0.742,0.377,1.484,0.671,2.202c0.294,0.707,0.659,1.39,1.083,2.025c0.424,0.648,0.919,1.248,1.46,1.79
			c0.542,0.542,1.153,1.036,1.79,1.472c0.648,0.424,1.331,0.789,2.037,1.083c0.707,0.294,1.447,0.518,2.202,0.671
			c0.764,0.153,1.531,0.224,2.308,0.224c0.764,0,1.531-0.071,2.295-0.224c0.755-0.153,1.497-0.377,2.202-0.671
			c0.708-0.294,1.391-0.659,2.037-1.083c0.636-0.436,1.248-0.93,1.79-1.472c0.542-0.542,1.036-1.142,1.46-1.79
			c0.424-0.636,0.789-1.319,1.083-2.025c0.294-0.718,0.518-1.46,0.671-2.202c0.153-0.765,0.223-1.543,0.223-2.308
			C87.828,391.057,87.757,390.28,87.605,389.526z"/>
	</g>
</g>
<g>
	<g>
		<path d="M488.053,426.556H431.64c-0.536-0.239-1.074-0.469-1.625-0.678l15.261-9.37c0.91-0.559,1.708-1.231,2.406-1.972
			c20.167-14.761,34.169-33.235,40.517-53.572c7.19-23.036,3.961-46.661-9.338-68.325c-27.965-45.551-79.197-54.627-130.523-23.118
			c-0.078,0.048-0.155,0.098-0.232,0.147l-69.749,45.102c0.168-1.495,0.263-3.012,0.263-4.552c0-22.354-18.185-40.539-40.54-40.539
			h-25.294c-14.532,0-27.297,7.691-34.456,19.211c-5.609-9.027-14.662-15.692-25.31-18.158l0.946-29.04
			c0.006-0.191,0.007-0.38,0.005-0.571c-0.264-16.491-7.58-31.59-19.449-41.971c29.829-6,52.367-32.401,52.367-63.972V97.324
			c0.704-1.669,1.035-3.488,0.915-5.332C184.236,36.969,148.762,0,99.529,0C46.461,0,12.17,38.629,12.17,98.412v134.322
			c0,4.673,2.728,8.696,6.672,10.599v151.668c0,0.1,0.013,0.197,0.015,0.296v43.033v61.892c0,6.504,5.273,11.776,11.776,11.776
			h457.42c6.503,0,11.776-5.272,11.776-11.776v-61.892C499.829,431.828,494.557,426.556,488.053,426.556z M360.777,289.524
			c15.252-9.338,66.806-35.389,98.013,15.439c20.211,32.919,5.983,63.506-16.699,83.851l-37.705-61.415
			c-0.204-0.333-0.424-0.654-0.658-0.962c-1.638-2.157-3.98-3.694-6.638-4.33c-3.038-0.728-6.24-0.218-8.901,1.418l-36.457,22.382
			c0,0,0,0-0.001,0c-0.903,0.555-1.783,1.105-2.644,1.651c-0.363,0.23-0.71,0.457-1.067,0.687c-0.482,0.31-0.967,0.621-1.435,0.928
			c-0.442,0.29-0.868,0.576-1.298,0.863c-0.358,0.239-0.719,0.479-1.069,0.717c-0.48,0.326-0.948,0.65-1.415,0.974
			c-0.272,0.19-0.546,0.379-0.814,0.568c-0.511,0.359-1.009,0.717-1.504,1.074c-0.198,0.142-0.396,0.286-0.59,0.429
			c-0.536,0.391-1.061,0.781-1.576,1.169c-0.128,0.097-0.257,0.194-0.384,0.291c-0.562,0.426-1.113,0.851-1.65,1.275
			c-0.052,0.041-0.104,0.082-0.155,0.122c-12.88,10.175-18.987,19.477-22.142,29.945c-0.021,0.071-0.041,0.141-0.062,0.212
			c-0.121,0.406-0.239,0.814-0.352,1.223c-0.089,0.324-0.175,0.655-0.26,0.986c-0.046,0.181-0.094,0.362-0.139,0.543
			c-0.114,0.46-0.224,0.93-0.33,1.404c-0.016,0.075-0.034,0.151-0.051,0.226c-0.039,0.177-0.081,0.346-0.119,0.525
			c-0.001,0.006-0.001,0.012-0.002,0.018c-0.001,0.007-0.004,0.013-0.005,0.02c-0.018,0.085-0.034,0.17-0.051,0.253l-35.973-48.077
			L360.777,289.524z M422.919,402.6l-26.42,16.221c-19.804,12.157-45.814,5.939-57.973-13.866c-1.227-2-2.288-4.118-3.174-6.322
			c0.894-4.988,2.356-9.296,5.466-13.648c3.951-5.314,10.829-11.392,23.235-19.008l26.422-16.222L422.919,402.6z M212.786,293.232
			h25.294c9.368,0,16.989,7.621,16.989,16.988s-7.621,16.988-16.989,16.988h-25.294c-9.368,0-16.989-7.621-16.989-16.988
			S203.419,293.232,212.786,293.232z M236.695,352.663c-2.416,1.215-4.779,2.738-7.044,4.615c-7.164,6-11.594,14.151-13.079,22.767
			H112.694c-6.503,0-11.776,5.272-11.776,11.776s5.273,11.776,11.776,11.776h107.388c0.876,1.724,1.89,3.401,3.057,5.008
			c0.205,0.284,0.423,0.557,0.654,0.821l14.927,17.128H42.409v-73.891H236.695z M143.875,293.232c9.369,0,16.989,7.62,16.989,16.988
			s-7.621,16.988-16.989,16.988H118.58c-9.368,0-16.989-7.621-16.989-16.988s7.621-16.988,16.989-16.988H143.875z M163.339,135.18
			c-0.001,22.995-18.709,41.703-41.704,41.703c-1.447,0-2.894-0.077-4.336-0.23c-0.044-0.246-0.088-0.489-0.132-0.737
			c-0.178-1.028-0.347-2.07-0.51-3.124c-0.062-0.402-0.125-0.801-0.185-1.208c-0.186-1.265-0.362-2.548-0.526-3.849
			c-0.029-0.233-0.061-0.46-0.09-0.696c-0.19-1.538-0.365-3.097-0.525-4.683c-0.007-0.067-0.013-0.138-0.02-0.205
			c-0.161-1.616-0.307-3.256-0.438-4.921c-0.003-0.047-0.007-0.095-0.011-0.143c-0.131-1.686-0.246-3.396-0.345-5.132
			c-0.002-0.042-0.005-0.087-0.007-0.13c-0.098-1.736-0.18-3.496-0.246-5.281c-0.002-0.062-0.004-0.126-0.006-0.187
			c-0.065-1.776-0.114-3.574-0.147-5.396c-0.001-0.062-0.001-0.128-0.002-0.191c-0.032-1.841-0.049-3.703-0.049-5.591V104.53h49.279
			V135.18z M35.721,98.412c0-17.561,4.601-74.861,63.808-74.861c38.782,0,57.599,28.679,63.161,57.426h-60.407
			c-6.503,0-11.776,5.272-11.776,11.776v42.426c0,43.244,7.668,69.214,16.864,85.778h-71.65V98.412z M42.393,244.51h87.917
			l-0.82,25.171h-10.91c-22.354,0-40.54,18.185-40.54,40.539c0,6.819,1.7,13.247,4.687,18.892H42.393V244.51z M42.409,488.445
			v-38.337h216.834l24.372,27.967c0.508,0.602,1.033,1.185,1.57,1.755c0.168,0.179,0.341,0.35,0.512,0.525
			c0.376,0.386,0.756,0.767,1.145,1.138c0.207,0.197,0.417,0.391,0.626,0.583c0.376,0.344,0.757,0.681,1.145,1.01
			c0.213,0.181,0.425,0.365,0.642,0.542c0.439,0.36,0.888,0.709,1.342,1.052c0.167,0.126,0.33,0.258,0.499,0.382
			c0.621,0.456,1.254,0.895,1.901,1.318c0.158,0.104,0.321,0.199,0.482,0.3c0.499,0.318,1.003,0.628,1.516,0.926
			c0.239,0.139,0.482,0.271,0.724,0.406c0.259,0.144,0.512,0.296,0.775,0.435H42.409z M321.535,470.622
			c-8.562,0.124-15.626-2.611-19.941-7.761c-0.049-0.059-0.1-0.118-0.151-0.175l-59.499-68.277
			c-4.145-6.094-2.97-14.219,2.78-19.034c7.944-6.584,15.831-0.443,17.511,1.56c0.049,0.059,0.099,0.117,0.148,0.174l60.659,69.642
			c2.343,2.69,5.823,4.177,9.341,4.032l86.322-3.377c1.567-0.051,3.05,0.4,4.299,1.203c0.248,0.16,0.485,0.333,0.71,0.518
			c0.121,0.1,0.243,0.199,0.358,0.307c0.216,0.201,0.412,0.42,0.601,0.645c0.098,0.117,0.203,0.228,0.293,0.351
			c0.186,0.252,0.345,0.522,0.497,0.796c0.065,0.117,0.142,0.224,0.201,0.345c0.197,0.403,0.364,0.823,0.486,1.264
			c0.204,0.731,0.286,1.419,0.284,2.056c-0.002,0.637-0.089,1.225-0.226,1.753c-0.12,0.464-0.279,0.876-0.45,1.246
			c-0.024,0.051-0.045,0.111-0.068,0.159c-0.025,0.052-0.051,0.093-0.077,0.143c-0.174,0.339-0.354,0.638-0.517,0.873
			c-0.279,0.402-0.691,0.91-1.258,1.404c-0.946,0.822-2.319,1.599-4.209,1.762l-97.757,8.391
			C321.759,470.623,321.649,470.621,321.535,470.622z M476.28,488.448h-0.002h-86.701l32.069-2.753
			c9.216-0.791,17.527-5.603,22.8-13.203c0.016-0.024,0.031-0.047,0.046-0.071c0.291-0.422,0.57-0.849,0.838-1.282
			c0.098-0.159,0.19-0.32,0.284-0.48c0.181-0.304,0.36-0.609,0.531-0.919c0.101-0.184,0.197-0.37,0.294-0.555
			c0.153-0.292,0.303-0.585,0.446-0.881c0.094-0.194,0.185-0.389,0.274-0.584c0.135-0.297,0.266-0.595,0.392-0.894
			c0.081-0.194,0.164-0.387,0.241-0.583c0.126-0.318,0.245-0.638,0.36-0.96c0.065-0.178,0.131-0.356,0.192-0.535
			c0.132-0.387,0.252-0.778,0.367-1.17c0.034-0.115,0.073-0.228,0.105-0.344c0.145-0.511,0.276-1.024,0.393-1.543
			c0.026-0.115,0.046-0.231,0.071-0.346c0.086-0.402,0.168-0.804,0.239-1.209c0.032-0.18,0.057-0.362,0.085-0.542
			c0.053-0.343,0.104-0.687,0.146-1.032c0.025-0.199,0.045-0.399,0.065-0.598c0.034-0.332,0.062-0.665,0.086-0.999
			c0.014-0.201,0.026-0.403,0.036-0.604c0.016-0.341,0.026-0.683,0.032-1.026c0.004-0.191,0.008-0.382,0.007-0.572
			c-0.001-0.377-0.012-0.754-0.027-1.13c-0.006-0.155-0.008-0.31-0.016-0.465c-0.055-1.021-0.159-2.043-0.318-3.062h26.664V488.448z
			"/>
	</g>
</g>
<g>
	<g>
		<path d="M242.312,166.416c0-2.088,0.345-2.534,2.257-5.013c2.852-3.696,7.163-9.282,7.163-19.402
			c0-6.504-5.273-11.776-11.776-11.776c-6.503,0-11.776,5.272-11.776,11.776c0,2.088-0.345,2.534-2.257,5.013
			c-2.852,3.696-7.163,9.282-7.163,19.402c0,10.12,4.31,15.705,7.163,19.402c1.912,2.479,2.257,2.925,2.257,5.015
			c0,2.089-0.345,2.535-2.257,5.014c-2.851,3.696-7.163,9.283-7.163,19.403c0,6.504,5.273,11.776,11.776,11.776
			s11.776-5.272,11.776-11.776c0-2.089,0.345-2.535,2.257-5.015c2.853-3.696,7.163-9.283,7.163-19.402
			c0-10.12-4.311-15.705-7.163-19.403C242.657,168.953,242.312,168.505,242.312,166.416z"/>
	</g>
</g>
<g>
	<g>
		<path d="M290.24,187.796c0-2.088,0.345-2.534,2.257-5.013c2.852-3.696,7.163-9.282,7.163-19.401
			c0-6.504-5.273-11.776-11.776-11.776c-6.503,0-11.776,5.272-11.776,11.776c0,2.088-0.345,2.534-2.256,5.012
			c-2.853,3.696-7.164,9.283-7.164,19.402c0,10.12,4.311,15.705,7.163,19.403c1.912,2.478,2.257,2.925,2.257,5.014
			c0,2.089-0.345,2.535-2.257,5.015c-2.853,3.696-7.163,9.283-7.163,19.402c0,6.504,5.273,11.776,11.776,11.776
			c6.503,0,11.776-5.272,11.776-11.776c0-2.089,0.345-2.535,2.257-5.014c2.852-3.698,7.163-9.283,7.163-19.403
			c0-10.119-4.31-15.705-7.163-19.402C290.585,190.333,290.24,189.887,290.24,187.796z"/>
	</g>
</g>
</svg>